Coordinates
version=1
nRows=8
nColumns=63
inDegrees=yes

Units are S.I. units (second, meters, Newtons, ...)
If the header above contains a line with 'inDegrees', this indicates whether rotational values are in degrees (yes) or radians (no).

endheader
time	pelvis_tilt	pelvis_list	pelvis_rotation	pelvis_tx	pelvis_ty	pelvis_tz	hip_flexion_r	hip_adduction_r	hip_rotation_r	knee_angle_r	knee_angle_r_beta	ankle_angle_r	subtalar_angle_r	mtp_angle_r	hip_flexion_l	hip_adduction_l	hip_rotation_l	knee_angle_l	knee_angle_l_beta	ankle_angle_l	subtalar_angle_l	mtp_angle_l	L5_S1_Flex_Ext	L5_S1_Lat_Bending	L5_S1_axial_rotation	L4_L5_Flex_Ext	L4_L5_Lat_Bending	L4_L5_axial_rotation	L3_L4_Flex_Ext	L3_L4_Lat_Bending	L3_L4_axial_rotation	L2_L3_Flex_Ext	L2_L3_Lat_Bending	L2_L3_axial_rotation	L1_L2_Flex_Ext	L1_L2_Lat_Bending	L1_L2_axial_rotation	L1_T12_Flex_Ext	L1_T12_Lat_Bending	L1_T12_axial_rotation	Abs_r3	Abs_r2	Abs_r1	Abs_t1	Abs_t2	neck_flexion	neck_bending	neck_rotation	arm_flex_r	arm_add_r	arm_rot_r	elbow_flex_r	pro_sup_r	wrist_flex_r	wrist_dev_r	arm_flex_l	arm_add_l	arm_rot_l	elbow_flex_l	pro_sup_l	wrist_flex_l	wrist_dev_l
3.600000	-2.860457	-5.294759	86.767222	0.294198	0.792741	0.731544	-8.123157	1.750736	8.858283	0.228293	0.003984	18.123420	-12.322271	0.000000	-8.207375	-1.732790	4.981534	0.225177	0.003930	32.271227	-4.892167	0.000000	-0.040492	0.949312	0.088603	-0.075197	1.262585	0.094140	-0.066524	2.308158	0.094140	-0.046278	2.308158	0.077527	-0.037601	1.935838	0.071990	-0.023137	1.470485	0.066452	-0.289230	10.738812	0.492781	0.000000	0.000000	22.602296	-11.951798	-4.234853	7.310560	-17.134392	151.982459	4.762436	4.881871	-4.605637	-6.756189	14.338593	-0.422106	172.019807	1.183714	6.985609	-6.709493	-12.952510
3.625000	-3.001749	-5.837007	86.774383	0.294294	0.792443	0.735756	-7.259437	1.663080	8.707128	0.242029	0.004224	17.982409	-12.184160	0.000000	-7.347160	-1.625850	5.986596	0.242525	0.004233	31.468934	-6.438171	0.000000	-0.021152	0.919012	0.037686	-0.039282	1.222286	0.040041	-0.034751	2.234485	0.040041	-0.024175	2.234485	0.032975	-0.019642	1.874049	0.030620	-0.012086	1.423549	0.028264	-0.151090	10.396044	0.209596	0.000000	0.000000	22.856254	-11.708500	-4.649300	8.121660	-16.276516	154.832753	3.599835	4.415694	-4.002356	-6.989283	15.207007	-0.349627	173.991676	1.052548	7.248022	-6.519605	-13.361812
3.650000	-3.170165	-6.337093	86.744599	0.294561	0.792060	0.739748	-6.459805	1.552916	8.561657	0.255244	0.004455	17.816985	-12.057196	0.000000	-6.560700	-1.502783	6.986061	0.258852	0.004518	30.655876	-7.971790	0.000000	-0.006153	0.881621	-0.005095	-0.011426	1.172556	-0.005413	-0.010109	2.143574	-0.005413	-0.007032	2.143574	-0.004458	-0.005714	1.797802	-0.004139	-0.003516	1.365631	-0.003821	-0.043949	9.973077	-0.028335	0.000000	0.000000	23.112352	-11.387233	-5.117819	8.871344	-15.404538	157.274680	2.553859	3.805828	-3.278278	-7.142564	15.921716	-0.369442	175.710204	0.941490	7.369376	-6.152537	-13.681987
3.675000	-3.351297	-6.771185	86.648915	0.295033	0.791629	0.743342	-5.759687	1.426282	8.458264	0.266990	0.004660	17.627847	-11.960206	0.000000	-5.886757	-1.368449	7.897233	0.273033	0.004765	29.883709	-9.437223	0.000000	0.004433	0.839731	-0.034908	0.008232	1.116842	-0.037090	0.007282	2.041722	-0.037090	0.005066	2.041722	-0.030544	0.004116	1.712379	-0.028363	0.002533	1.300743	-0.026181	0.031661	9.499204	-0.194147	0.000000	0.000000	23.349715	-11.000875	-5.625492	9.553473	-14.562648	159.464816	1.664298	3.395739	-2.614619	-7.146550	16.482747	-0.472024	177.047947	0.894666	7.446694	-5.653338	-13.863402
3.700000	-3.545571	-7.130936	86.502217	0.295684	0.791165	0.746427	-5.176723	1.283762	8.297386	0.277563	0.004844	17.498386	-11.737100	0.000000	-5.333586	-1.223576	8.680529	0.284560	0.004967	29.221422	-10.755542	0.000000	0.011892	0.793977	-0.058322	0.022084	1.055989	-0.061967	0.019537	1.930475	-0.061967	0.013591	1.930475	-0.051032	0.011043	1.619077	-0.047386	0.006795	1.229870	-0.043741	0.084942	8.981624	-0.324369	0.000000	0.000000	23.560587	-10.540892	-6.139248	10.155234	-13.794054	161.427533	0.974714	3.322020	-2.174394	-6.926274	16.897447	-0.660237	177.765748	0.961854	7.479225	-5.027377	-13.934996
3.725000	-3.739955	-7.401789	86.233913	0.296557	0.790711	0.748905	-4.729537	1.120574	8.290001	0.286042	0.004992	17.330995	-11.642591	0.000000	-4.927461	-1.060117	9.171109	0.292466	0.005104	28.712325	-11.810098	0.000000	0.014972	0.747937	-0.056370	0.027804	0.994756	-0.059893	0.024597	1.818533	-0.059893	0.017111	1.818533	-0.049323	0.013903	1.525193	-0.045800	0.008555	1.158554	-0.042277	0.106943	8.460810	-0.313511	0.000000	0.000000	23.733664	-10.062007	-6.661968	10.645882	-13.143396	163.334436	0.480692	3.443629	-2.068110	-6.609293	17.187766	-0.894717	178.173723	1.108395	7.400426	-4.284639	-13.871334
3.750000	-3.931424	-7.584680	85.874440	0.297596	0.790268	0.750688	-4.425723	0.943351	8.295045	0.292562	0.005106	17.189345	-11.503056	0.000000	-4.663888	-0.884770	9.404029	0.296518	0.005175	28.382681	-12.599190	0.000000	0.015264	0.702893	-0.034086	0.028347	0.934848	-0.036216	0.025078	1.709015	-0.036216	0.017446	1.709015	-0.029825	0.014174	1.433340	-0.027695	0.008722	1.088782	-0.025564	0.109032	7.951271	-0.189574	0.000000	0.000000	23.856774	-9.589895	-7.183130	10.970942	-12.645867	164.870250	0.187518	3.700249	-2.281913	-6.301899	17.347113	-1.177704	178.009873	1.378361	7.203744	-3.542827	-13.800885
3.775000	-4.116371	-7.667101	85.437616	0.298774	0.789847	0.751706	-4.281590	0.754610	8.333248	0.296684	0.005178	17.087879	-11.332012	0.000000	-4.557587	-0.699120	9.303855	0.296602	0.005177	28.255310	-13.002508	0.000000	0.011784	0.659971	0.006164	0.021884	0.877761	0.006549	0.019360	1.604653	0.006549	0.013468	1.604653	0.005393	0.010942	1.345812	0.005008	0.006733	1.022295	0.004623	0.084170	7.465720	0.034281	0.000000	0.000000	23.926528	-9.125424	-7.660609	11.114051	-12.283472	166.127143	0.037531	3.921873	-2.716308	-6.132904	17.356781	-1.495844	177.225827	1.764855	6.904607	-2.960707	-13.769554
